<svg width="234" height="38" viewBox="0 0 234 38" fill="none" xmlns="http://www.w3.org/2000/svg">
<g filter="url(#filter0_dd_13001_399)">
<rect x="3.1" y="2.1" width="31.8" height="31.8" rx="7.9" fill="white"/>
<rect x="3.1" y="2.1" width="31.8" height="31.8" rx="7.9" fill="url(#paint0_linear_13001_399)"/>
<rect x="3.1" y="2.1" width="31.8" height="31.8" rx="7.9" stroke="#D0D5DD" stroke-width="0.2"/>
<path d="M18.3546 13.1828C22.7105 11.4504 27.4742 12.8185 29.6373 14.9133C30.106 15.3671 30.5041 15.8275 30.845 16.2852C31.0394 15.2107 31.0552 14.1405 30.8681 13.1055C30.1847 9.32649 26.6195 7.18561 23.4233 8.29149C20.2415 9.3924 19.0005 11.5321 19.0005 11.5321C19.0005 11.5321 17.7595 9.3924 14.5777 8.29149C11.3812 7.18561 7.81603 9.32672 7.1328 13.1055C6.62842 15.8944 7.58356 18.9392 9.61033 21.6298C10.0372 21.7732 10.4847 21.8809 10.9586 21.9431C13.7978 22.3163 14.8184 21.557 16.0178 21.0486C16.8142 20.7113 17.4134 21.0942 17.3843 21.3626C17.3392 21.7786 15.7693 22.4895 16.106 22.6388C17.4351 23.2285 19.0718 23.2334 20.3053 22.18C21.838 20.8712 22.4114 21.7659 22.4114 21.7659C22.4114 21.7659 21.6502 23.7076 19.3581 24.6717C17.4457 25.4761 15.4419 25.6743 13.6107 25.4683C15.19 26.5846 17.0035 27.5204 19.0005 28.1883C24.7099 26.2784 28.9276 22.1871 30.4145 17.9096C29.4072 16.9157 28.1716 16.2996 26.6988 16.0763C23.8674 15.6471 22.8322 16.3863 21.6228 16.8708C20.8198 17.1926 20.2285 16.7978 20.263 16.5299C20.3161 16.1148 21.8999 15.4351 21.5661 15.279C20.249 14.6633 18.6125 14.626 17.3585 15.6549C15.8003 16.9332 15.2446 16.0274 15.2446 16.0274C15.2446 16.0274 16.0438 14.1015 18.3546 13.1828ZM17.2709 18.5052H18.3709V17.4052H19.6296V18.5052H20.7296V19.7639H19.6296V20.8639H18.3709V19.7639H17.2709V18.5052Z" fill="url(#paint1_linear_13001_399)"/>
<path d="M17.2709 18.5052H18.3709V17.4052H19.6296V18.5052H20.7295V19.7639H19.6378C21.2597 20.5834 24.2383 21.8027 27.8177 22.3451C28.9956 20.9517 29.8813 19.4428 30.4143 17.9096C29.4069 16.9157 28.1713 16.2996 26.6986 16.0763C23.8672 15.647 22.8319 16.3863 21.6226 16.8708C20.8196 17.1926 20.2282 16.7978 20.2627 16.5299C20.3159 16.1148 21.8997 15.4351 21.5659 15.279C20.2488 14.6633 18.6123 14.626 17.3583 15.6548C15.8 16.9332 15.2443 16.0274 15.2443 16.0274C15.2443 16.0274 16.0438 14.1013 18.3543 13.1823C22.7102 11.4499 27.4739 12.818 29.637 14.9128C30.1057 15.3666 30.5038 15.8271 30.8447 16.2847C31.0392 15.2102 31.055 14.14 30.8679 13.105C30.1844 9.326 26.6192 7.18512 23.423 8.291C20.2412 9.39191 19.0002 11.5316 19.0002 11.5316C19.0002 11.5316 17.7592 9.39191 14.5774 8.291C12.7519 7.65927 10.8067 8.0883 9.34619 9.27521C10.0323 10.7442 10.836 12.1168 13.1254 14.8773C14.9868 17.1222 17.2709 18.5052 17.2709 18.5052Z" fill="url(#paint2_linear_13001_399)"/>
<path opacity="0.31" d="M27.277 9.64954C24.2712 8.13944 21.169 10.4892 20.1851 11.7299C21.882 11.3725 23.3668 11.1892 25.2457 11.5839C28.0252 12.1679 29.0654 13.1715 30.3064 14.6542C30.0871 11.9069 28.3519 10.1896 27.277 9.64954Z" fill="url(#paint3_linear_13001_399)"/>
</g>
<path d="M49.896 28V13H45.264V10.12H57.744V13H53.184V28H49.896ZM63.9763 28.288C62.6323 28.288 61.4563 27.984 60.4483 27.376C59.4403 26.768 58.6563 25.944 58.0963 24.904C57.5363 23.864 57.2563 22.712 57.2563 21.448C57.2563 20.136 57.5363 18.976 58.0963 17.968C58.6723 16.944 59.4483 16.136 60.4243 15.544C61.4163 14.952 62.5203 14.656 63.7363 14.656C64.7603 14.656 65.6563 14.824 66.4243 15.16C67.2083 15.496 67.8723 15.96 68.4163 16.552C68.9603 17.144 69.3763 17.824 69.6643 18.592C69.9523 19.344 70.0963 20.16 70.0963 21.04C70.0963 21.264 70.0803 21.496 70.0483 21.736C70.0323 21.976 69.9923 22.184 69.9283 22.36H59.8483V19.96H68.1523L66.6643 21.088C66.8083 20.352 66.7683 19.696 66.5443 19.12C66.3363 18.544 65.9843 18.088 65.4883 17.752C65.0083 17.416 64.4243 17.248 63.7363 17.248C63.0803 17.248 62.4963 17.416 61.9843 17.752C61.4723 18.072 61.0803 18.552 60.8083 19.192C60.5523 19.816 60.4563 20.576 60.5203 21.472C60.4563 22.272 60.5603 22.984 60.8323 23.608C61.1203 24.216 61.5363 24.688 62.0803 25.024C62.6403 25.36 63.2803 25.528 64.0003 25.528C64.7203 25.528 65.3283 25.376 65.8243 25.072C66.3363 24.768 66.7363 24.36 67.0243 23.848L69.5683 25.096C69.3123 25.72 68.9123 26.272 68.3683 26.752C67.8243 27.232 67.1763 27.608 66.4243 27.88C65.6883 28.152 64.8723 28.288 63.9763 28.288ZM72.4796 28V9.832H75.6236V28H72.4796ZM84.7185 28.288C83.3745 28.288 82.1985 27.984 81.1905 27.376C80.1825 26.768 79.3985 25.944 78.8385 24.904C78.2785 23.864 77.9985 22.712 77.9985 21.448C77.9985 20.136 78.2785 18.976 78.8385 17.968C79.4145 16.944 80.1905 16.136 81.1665 15.544C82.1585 14.952 83.2625 14.656 84.4785 14.656C85.5025 14.656 86.3985 14.824 87.1665 15.16C87.9505 15.496 88.6145 15.96 89.1585 16.552C89.7025 17.144 90.1185 17.824 90.4065 18.592C90.6945 19.344 90.8385 20.16 90.8385 21.04C90.8385 21.264 90.8225 21.496 90.7905 21.736C90.7745 21.976 90.7345 22.184 90.6705 22.36H80.5905V19.96H88.8945L87.4065 21.088C87.5505 20.352 87.5105 19.696 87.2865 19.12C87.0785 18.544 86.7265 18.088 86.2305 17.752C85.7505 17.416 85.1665 17.248 84.4785 17.248C83.8225 17.248 83.2385 17.416 82.7265 17.752C82.2145 18.072 81.8225 18.552 81.5505 19.192C81.2945 19.816 81.1985 20.576 81.2625 21.472C81.1985 22.272 81.3025 22.984 81.5745 23.608C81.8625 24.216 82.2785 24.688 82.8225 25.024C83.3825 25.36 84.0225 25.528 84.7425 25.528C85.4625 25.528 86.0705 25.376 86.5665 25.072C87.0785 24.768 87.4785 24.36 87.7665 23.848L90.3105 25.096C90.0545 25.72 89.6545 26.272 89.1105 26.752C88.5665 27.232 87.9185 27.608 87.1665 27.88C86.4305 28.152 85.6145 28.288 84.7185 28.288ZM93.2218 28V14.944H96.1738V17.968L95.8378 17.464C96.0778 16.52 96.5578 15.816 97.2778 15.352C97.9978 14.888 98.8458 14.656 99.8218 14.656C100.894 14.656 101.838 14.936 102.654 15.496C103.47 16.056 103.998 16.792 104.238 17.704L103.35 17.776C103.75 16.736 104.35 15.96 105.15 15.448C105.95 14.92 106.87 14.656 107.91 14.656C108.838 14.656 109.662 14.864 110.382 15.28C111.118 15.696 111.694 16.28 112.11 17.032C112.526 17.768 112.734 18.624 112.734 19.6V28H109.59V20.344C109.59 19.768 109.486 19.272 109.278 18.856C109.07 18.44 108.782 18.12 108.414 17.896C108.046 17.656 107.598 17.536 107.07 17.536C106.574 17.536 106.134 17.656 105.75 17.896C105.366 18.12 105.07 18.44 104.862 18.856C104.654 19.272 104.55 19.768 104.55 20.344V28H101.406V20.344C101.406 19.768 101.302 19.272 101.094 18.856C100.886 18.44 100.59 18.12 100.206 17.896C99.8378 17.656 99.3978 17.536 98.8858 17.536C98.3898 17.536 97.9498 17.656 97.5658 17.896C97.1818 18.12 96.8858 18.44 96.6778 18.856C96.4698 19.272 96.3658 19.768 96.3658 20.344V28H93.2218ZM121.586 28.288C120.242 28.288 119.066 27.984 118.058 27.376C117.05 26.768 116.266 25.944 115.706 24.904C115.146 23.864 114.866 22.712 114.866 21.448C114.866 20.136 115.146 18.976 115.706 17.968C116.282 16.944 117.058 16.136 118.034 15.544C119.026 14.952 120.13 14.656 121.346 14.656C122.37 14.656 123.266 14.824 124.034 15.16C124.818 15.496 125.482 15.96 126.026 16.552C126.57 17.144 126.986 17.824 127.274 18.592C127.562 19.344 127.706 20.16 127.706 21.04C127.706 21.264 127.69 21.496 127.658 21.736C127.642 21.976 127.602 22.184 127.538 22.36H117.458V19.96H125.762L124.274 21.088C124.418 20.352 124.378 19.696 124.154 19.12C123.946 18.544 123.594 18.088 123.098 17.752C122.618 17.416 122.034 17.248 121.346 17.248C120.69 17.248 120.106 17.416 119.594 17.752C119.082 18.072 118.69 18.552 118.418 19.192C118.162 19.816 118.066 20.576 118.13 21.472C118.066 22.272 118.17 22.984 118.442 23.608C118.73 24.216 119.146 24.688 119.69 25.024C120.25 25.36 120.89 25.528 121.61 25.528C122.33 25.528 122.938 25.376 123.434 25.072C123.946 24.768 124.346 24.36 124.634 23.848L127.178 25.096C126.922 25.72 126.522 26.272 125.978 26.752C125.434 27.232 124.786 27.608 124.034 27.88C123.298 28.152 122.482 28.288 121.586 28.288ZM136.161 28.288C134.897 28.288 133.769 27.992 132.777 27.4C131.785 26.792 131.001 25.968 130.425 24.928C129.849 23.888 129.561 22.736 129.561 21.472C129.561 20.192 129.849 19.04 130.425 18.016C131.001 16.992 131.785 16.176 132.777 15.568C133.785 14.96 134.905 14.656 136.137 14.656C137.129 14.656 138.009 14.856 138.777 15.256C139.561 15.64 140.177 16.184 140.625 16.888L140.145 17.536V9.832H143.289V28H140.313V25.48L140.649 26.104C140.201 26.808 139.577 27.352 138.777 27.736C137.977 28.104 137.105 28.288 136.161 28.288ZM136.497 25.408C137.217 25.408 137.849 25.24 138.393 24.904C138.937 24.568 139.361 24.104 139.665 23.512C139.985 22.92 140.145 22.24 140.145 21.472C140.145 20.72 139.985 20.048 139.665 19.456C139.361 18.848 138.937 18.376 138.393 18.04C137.849 17.704 137.217 17.536 136.497 17.536C135.793 17.536 135.161 17.712 134.601 18.064C134.041 18.4 133.601 18.864 133.281 19.456C132.977 20.032 132.825 20.704 132.825 21.472C132.825 22.24 132.977 22.92 133.281 23.512C133.601 24.104 134.041 24.568 134.601 24.904C135.161 25.24 135.793 25.408 136.497 25.408ZM145.014 28L150.87 19L145.062 10.12H148.806L153.558 17.392H151.83L156.558 10.12H160.302L154.518 19L160.35 28H156.606L151.83 20.632H153.558L148.758 28H145.014ZM162.081 32.8V14.944H165.033V17.536L164.745 16.888C165.193 16.184 165.801 15.64 166.569 15.256C167.337 14.856 168.225 14.656 169.233 14.656C170.465 14.656 171.577 14.96 172.569 15.568C173.561 16.176 174.345 16.992 174.921 18.016C175.513 19.04 175.809 20.192 175.809 21.472C175.809 22.736 175.521 23.888 174.945 24.928C174.369 25.968 173.585 26.792 172.593 27.4C171.601 27.992 170.473 28.288 169.209 28.288C168.265 28.288 167.393 28.104 166.593 27.736C165.809 27.352 165.185 26.808 164.721 26.104L165.225 25.48V32.8H162.081ZM168.849 25.408C169.569 25.408 170.209 25.24 170.769 24.904C171.329 24.568 171.761 24.104 172.065 23.512C172.385 22.92 172.545 22.24 172.545 21.472C172.545 20.704 172.385 20.032 172.065 19.456C171.761 18.864 171.329 18.4 170.769 18.064C170.209 17.712 169.569 17.536 168.849 17.536C168.161 17.536 167.537 17.704 166.977 18.04C166.433 18.376 166.001 18.848 165.681 19.456C165.377 20.048 165.225 20.72 165.225 21.472C165.225 22.24 165.377 22.92 165.681 23.512C166.001 24.104 166.433 24.568 166.977 24.904C167.537 25.24 168.161 25.408 168.849 25.408ZM178.206 28V14.944H181.158V17.848L180.918 17.416C181.222 16.44 181.694 15.76 182.334 15.376C182.99 14.992 183.774 14.8 184.686 14.8H185.454V17.584H184.326C183.43 17.584 182.71 17.864 182.166 18.424C181.622 18.968 181.35 19.736 181.35 20.728V28H178.206ZM193.375 28.288C192.031 28.288 190.855 27.984 189.847 27.376C188.839 26.768 188.055 25.944 187.495 24.904C186.935 23.864 186.655 22.712 186.655 21.448C186.655 20.136 186.935 18.976 187.495 17.968C188.071 16.944 188.847 16.136 189.823 15.544C190.815 14.952 191.919 14.656 193.135 14.656C194.159 14.656 195.055 14.824 195.823 15.16C196.607 15.496 197.271 15.96 197.815 16.552C198.359 17.144 198.775 17.824 199.063 18.592C199.351 19.344 199.495 20.16 199.495 21.04C199.495 21.264 199.479 21.496 199.447 21.736C199.431 21.976 199.391 22.184 199.327 22.36H189.247V19.96H197.551L196.063 21.088C196.207 20.352 196.167 19.696 195.943 19.12C195.735 18.544 195.383 18.088 194.887 17.752C194.407 17.416 193.823 17.248 193.135 17.248C192.479 17.248 191.895 17.416 191.383 17.752C190.871 18.072 190.479 18.552 190.207 19.192C189.951 19.816 189.855 20.576 189.919 21.472C189.855 22.272 189.959 22.984 190.231 23.608C190.519 24.216 190.935 24.688 191.479 25.024C192.039 25.36 192.679 25.528 193.399 25.528C194.119 25.528 194.727 25.376 195.223 25.072C195.735 24.768 196.135 24.36 196.423 23.848L198.967 25.096C198.711 25.72 198.311 26.272 197.767 26.752C197.223 27.232 196.575 27.608 195.823 27.88C195.087 28.152 194.271 28.288 193.375 28.288ZM206.846 28.288C205.454 28.288 204.238 27.96 203.198 27.304C202.174 26.632 201.47 25.728 201.086 24.592L203.438 23.464C203.774 24.2 204.238 24.776 204.83 25.192C205.438 25.608 206.11 25.816 206.846 25.816C207.422 25.816 207.878 25.688 208.214 25.432C208.55 25.176 208.718 24.84 208.718 24.424C208.718 24.168 208.646 23.96 208.502 23.8C208.374 23.624 208.19 23.48 207.95 23.368C207.726 23.24 207.478 23.136 207.206 23.056L205.07 22.456C203.966 22.136 203.126 21.648 202.55 20.992C201.99 20.336 201.71 19.56 201.71 18.664C201.71 17.864 201.91 17.168 202.31 16.576C202.726 15.968 203.294 15.496 204.014 15.16C204.75 14.824 205.59 14.656 206.534 14.656C207.766 14.656 208.854 14.952 209.798 15.544C210.742 16.136 211.414 16.968 211.814 18.04L209.414 19.168C209.19 18.576 208.814 18.104 208.286 17.752C207.758 17.4 207.166 17.224 206.51 17.224C205.982 17.224 205.566 17.344 205.262 17.584C204.958 17.824 204.806 18.136 204.806 18.52C204.806 18.76 204.87 18.968 204.998 19.144C205.126 19.32 205.302 19.464 205.526 19.576C205.766 19.688 206.038 19.792 206.342 19.888L208.43 20.512C209.502 20.832 210.326 21.312 210.902 21.952C211.494 22.592 211.79 23.376 211.79 24.304C211.79 25.088 211.582 25.784 211.166 26.392C210.75 26.984 210.174 27.448 209.438 27.784C208.702 28.12 207.838 28.288 206.846 28.288ZM219.174 28.288C217.782 28.288 216.566 27.96 215.526 27.304C214.502 26.632 213.798 25.728 213.414 24.592L215.766 23.464C216.102 24.2 216.566 24.776 217.158 25.192C217.766 25.608 218.438 25.816 219.174 25.816C219.75 25.816 220.206 25.688 220.542 25.432C220.878 25.176 221.046 24.84 221.046 24.424C221.046 24.168 220.974 23.96 220.83 23.8C220.702 23.624 220.518 23.48 220.278 23.368C220.054 23.24 219.806 23.136 219.534 23.056L217.398 22.456C216.294 22.136 215.454 21.648 214.878 20.992C214.318 20.336 214.038 19.56 214.038 18.664C214.038 17.864 214.238 17.168 214.638 16.576C215.054 15.968 215.622 15.496 216.342 15.16C217.078 14.824 217.918 14.656 218.862 14.656C220.094 14.656 221.182 14.952 222.126 15.544C223.07 16.136 223.742 16.968 224.142 18.04L221.742 19.168C221.518 18.576 221.142 18.104 220.614 17.752C220.086 17.4 219.494 17.224 218.838 17.224C218.31 17.224 217.894 17.344 217.59 17.584C217.286 17.824 217.134 18.136 217.134 18.52C217.134 18.76 217.198 18.968 217.326 19.144C217.454 19.32 217.63 19.464 217.854 19.576C218.094 19.688 218.366 19.792 218.67 19.888L220.758 20.512C221.83 20.832 222.654 21.312 223.23 21.952C223.822 22.592 224.118 23.376 224.118 24.304C224.118 25.088 223.91 25.784 223.494 26.392C223.078 26.984 222.502 27.448 221.766 27.784C221.03 28.12 220.166 28.288 219.174 28.288Z" fill="white"/>
<defs>
<filter id="filter0_dd_13001_399" x="0" y="0" width="38" height="38" filterUnits="userSpaceOnUse" color-interpolation-filters="sRGB">
<feFlood flood-opacity="0" result="BackgroundImageFix"/>
<feColorMatrix in="SourceAlpha" type="matrix" values="0 0 0 0 0 0 0 0 0 0 0 0 0 0 0 0 0 0 127 0" result="hardAlpha"/>
<feOffset dy="1"/>
<feGaussianBlur stdDeviation="1"/>
<feColorMatrix type="matrix" values="0 0 0 0 0.0627451 0 0 0 0 0.0941176 0 0 0 0 0.156863 0 0 0 0.06 0"/>
<feBlend mode="normal" in2="BackgroundImageFix" result="effect1_dropShadow_13001_399"/>
<feColorMatrix in="SourceAlpha" type="matrix" values="0 0 0 0 0 0 0 0 0 0 0 0 0 0 0 0 0 0 127 0" result="hardAlpha"/>
<feOffset dy="1"/>
<feGaussianBlur stdDeviation="1.5"/>
<feColorMatrix type="matrix" values="0 0 0 0 0.0627451 0 0 0 0 0.0941176 0 0 0 0 0.156863 0 0 0 0.1 0"/>
<feBlend mode="normal" in2="effect1_dropShadow_13001_399" result="effect2_dropShadow_13001_399"/>
<feBlend mode="normal" in="SourceGraphic" in2="effect2_dropShadow_13001_399" result="shape"/>
</filter>
<linearGradient id="paint0_linear_13001_399" x1="19" y1="2" x2="19" y2="34" gradientUnits="userSpaceOnUse">
<stop stop-color="white"/>
<stop offset="1" stop-color="#D0D5DD"/>
</linearGradient>
<linearGradient id="paint1_linear_13001_399" x1="10.1989" y1="24.2137" x2="27.8347" y2="6.57791" gradientUnits="userSpaceOnUse">
<stop stop-color="#0076C1"/>
<stop offset="0.0737" stop-color="#0B82C6"/>
<stop offset="0.2766" stop-color="#269ED3"/>
<stop offset="0.4546" stop-color="#36AFDA"/>
<stop offset="0.587" stop-color="#3CB5DD"/>
</linearGradient>
<linearGradient id="paint2_linear_13001_399" x1="10.1388" y1="24.2537" x2="27.8274" y2="6.56509" gradientUnits="userSpaceOnUse">
<stop stop-color="#00A482"/>
<stop offset="1" stop-color="#79DD83"/>
</linearGradient>
<linearGradient id="paint3_linear_13001_399" x1="24.8608" y1="13.5073" x2="28.5288" y2="10.1132" gradientUnits="userSpaceOnUse">
<stop stop-color="#00A482"/>
<stop offset="1" stop-color="#79DD83"/>
</linearGradient>
</defs>
</svg>
